<?xml version="1.0" encoding="utf-8"?>
<!-- Generator: Adobe Illustrator 27.3.1, SVG Export Plug-In . SVG Version: 6.00 Build 0)  -->
<svg version="1.1" id="Layer_1" xmlns="http://www.w3.org/2000/svg" xmlns:xlink="http://www.w3.org/1999/xlink" x="0px" y="0px"
	 viewBox="0 0 24 24" style="enable-background:new 0 0 24 24;" xml:space="preserve">
<style type="text/css">
	.st0{fill:none;}
	.st1{fill:none;stroke:#A6A6A6;stroke-width:0.5;stroke-miterlimit:10;}
	.st2{fill:#B2B2B2;}
</style>
<path class="st0" d="M25.6,19.1"/>
<path class="st1" d="M11.9,15.8c-5.4-0.4-7.7-4.4-7.2-8.6c0.5-3.7,4.6-6.2,7.6-6c4,0.3,6.5,3.3,6.8,6.5c0,0.3,0.6,4.4-2.4,6.8
	c-1.9,1.5-4.1,1.8-4.8,1.8"/>
<g>
	<rect x="8.1" y="20.7" class="st2" width="1.6" height="0.3"/>
	<rect x="16.5" y="20.7" class="st2" width="1.6" height="0.3"/>
	<rect x="13.9" y="20.7" class="st2" width="1.4" height="0.3"/>
</g>
<g>
	<polygon class="st2" points="22.1,20.7 22.1,21 22.8,21 22.8,22.7 23.1,22.7 23.1,21 23.7,21 23.7,20.7 	"/>
	<rect x="0.3" y="20.7" class="st2" width="0.3" height="2"/>
	<polygon class="st2" points="2,22.7 2.3,22.7 2.3,21.1 2.9,22.7 3.1,22.7 3.7,21.1 3.7,22.7 4,22.7 4,20.7 3.5,20.7 3,22.2 
		2.5,20.7 2,20.7 	"/>
	<polygon class="st2" points="9.5,21.5 8.1,21.5 8.1,22.7 9.6,22.7 9.6,22.4 8.4,22.4 8.4,21.8 9.5,21.8 	"/>
	<polygon class="st2" points="17.9,21.5 16.5,21.5 16.5,22.7 18,22.7 18,22.4 16.8,22.4 16.8,21.8 17.9,21.8 	"/>
	<polygon class="st2" points="13.9,21.5 13.9,22.7 14.2,22.7 14.2,21.8 15.2,21.8 15.2,21.5 	"/>
	<path class="st2" d="M6.9,21.3c0,0.1,0,0.2-0.1,0.3c-0.1,0.2-0.3,0.3-0.5,0.3H5.6v0.8H5.2v-1l1.1,0c0.1,0,0.2-0.1,0.3-0.1
		c0-0.1,0.1-0.1,0.1-0.2c0,0,0-0.1,0-0.1c0-0.1-0.1-0.2-0.3-0.2H5.2v-0.3h1.1c0.3,0,0.5,0.2,0.6,0.4C6.9,21.2,6.9,21.2,6.9,21.3z"/>
	<path class="st2" d="M12.7,22.7h-0.3l-0.4-0.8h-0.6v0.8h-0.3v-1H12c0.1,0,0.2-0.1,0.3-0.1c0-0.1,0.1-0.1,0.1-0.2c0,0,0-0.1,0-0.1
		c0-0.1-0.2-0.2-0.3-0.2h-1.1v-0.3H12c0.3,0,0.5,0.2,0.6,0.4c0,0.1,0,0.1,0,0.2c0,0.1,0,0.2-0.1,0.3c-0.1,0.1-0.2,0.2-0.3,0.2
		L12.7,22.7z"/>
	<path class="st2" d="M20.8,22h0.3c-0.1,0.5-0.5,0.8-1,0.8c-0.5,0-1-0.5-1-1.1s0.4-1.1,1-1.1c0.5,0,0.8,0.3,1,0.8h-0.3
		c-0.1-0.3-0.3-0.5-0.6-0.5c-0.4,0-0.7,0.3-0.7,0.8s0.3,0.8,0.7,0.8C20.4,22.4,20.7,22.2,20.8,22z"/>
</g>
</svg>
