<?xml version="1.0" encoding="utf-8"?>
<!-- Generator: Adobe Illustrator 27.3.1, SVG Export Plug-In . SVG Version: 6.00 Build 0)  -->
<svg version="1.1" id="Layer_1" xmlns="http://www.w3.org/2000/svg" xmlns:xlink="http://www.w3.org/1999/xlink" x="0px" y="0px"
	 viewBox="0 0 50 52" style="enable-background:new 0 0 50 52;" xml:space="preserve">
<style type="text/css">
	.st0{opacity:2.000000e-02;fill:none;stroke:#000000;stroke-width:2;stroke-miterlimit:10;enable-background:new    ;}
	.st1{opacity:2.000000e-02;enable-background:new    ;}
</style>
<path class="st0" d="M24.7,34.8C13.4,34,8.7,25.6,9.8,17c1-7.7,9.5-13,15.7-12.5c8.4,0.7,13.6,6.9,14.3,13.6
	c0.1,0.6,1.2,9.2-4.9,14.3c-3.9,3.2-8.5,3.8-10,3.8"/>
<g class="st1">
	<rect x="16.7" y="45" width="3.3" height="0.6"/>
	<rect x="34.3" y="45" width="3.3" height="0.6"/>
	<rect x="28.8" y="45" width="3" height="0.6"/>
</g>
<g class="st1">
	<polygon points="46.1,45 46.1,45.6 47.4,45.6 47.4,49.1 48.1,49.1 48.1,45.6 49.4,45.6 49.4,45 	"/>
	<rect x="0.6" y="45" width="0.7" height="4.2"/>
	<polygon points="4.1,49.3 4.7,49.3 4.7,45.9 5.9,49.3 6.4,49.3 7.6,45.9 7.6,49.3 8.2,49.3 8.2,45 7.2,45 6.1,48.1 5.1,45 4.1,45 	
		"/>
	<polygon points="19.7,46.6 16.7,46.6 16.7,49.3 20,49.3 20,48.6 17.4,48.6 17.4,47.3 19.7,47.3 	"/>
	<polygon points="37.2,46.6 34.3,46.6 34.3,49.3 37.5,49.3 37.5,48.6 34.9,48.6 34.9,47.3 37.2,47.3 	"/>
	<polygon points="28.8,46.6 28.8,49.1 29.5,49.1 29.5,47.3 31.6,47.3 31.6,46.6 	"/>
	<path d="M14.3,46.2c0,0.3-0.1,0.5-0.2,0.7c-0.2,0.4-0.7,0.6-1.1,0.6h-1.5v1.7h-0.7V47H13c0.2,0,0.4-0.1,0.5-0.3
		c0.1-0.1,0.1-0.3,0.1-0.5c0-0.1,0-0.2,0-0.2c-0.1-0.3-0.3-0.4-0.6-0.4l-2.2,0V45h2.2c0.5,0,1.1,0.3,1.2,0.9
		C14.3,46,14.3,46.1,14.3,46.2z"/>
	<path d="M26.3,49.1h-0.7l-0.9-1.6h-1.3v1.7h-0.7V47h2.2c0.2,0,0.4-0.1,0.5-0.3c0.1-0.1,0.1-0.3,0.1-0.5c0-0.1,0-0.2,0-0.2
		c-0.1-0.3-0.3-0.4-0.6-0.4h-2.2V45h2.2c0.5,0,1.1,0.3,1.2,0.9c0,0.1,0,0.2,0,0.3c0,0.3-0.1,0.5-0.2,0.7c-0.2,0.2-0.4,0.4-0.6,0.5
		L26.3,49.1z"/>
	<path d="M43.2,47.6h0.7c-0.2,0.9-1,1.6-2,1.6c-1.1,0-2-1-2-2.2s0.9-2.2,2-2.2c0.9,0,1.7,0.7,2,1.6h-0.7c-0.2-0.6-0.7-1-1.3-1
		c-0.8,0-1.4,0.7-1.4,1.6s0.6,1.6,1.4,1.6C42.5,48.6,43,48.2,43.2,47.6z"/>
</g>
</svg>
