<?xml version="1.0" encoding="utf-8"?>
<!-- Generator: Adobe Illustrator 27.3.1, SVG Export Plug-In . SVG Version: 6.00 Build 0)  -->
<svg version="1.1" id="Layer_1" xmlns="http://www.w3.org/2000/svg" xmlns:xlink="http://www.w3.org/1999/xlink" x="0px" y="0px"
	 viewBox="0 0 538 554" style="enable-background:new 0 0 538 554;" xml:space="preserve">
<style type="text/css">
	.st0{opacity:2.000000e-02;fill:none;stroke:#000000;stroke-width:11;stroke-miterlimit:10;enable-background:new    ;}
	.st1{opacity:2.000000e-02;enable-background:new    ;}
</style>
<path class="st0" d="M266.7,369.5c-121.4-8.8-172.5-98.6-160.2-191.9c10.8-82.1,102.1-139,169-133.8c90,7.1,145.7,74.3,153.1,146.1
	c0.7,6.7,13.3,98.7-52.8,153.1c-41.4,34.1-91.6,40.3-107.4,40.5"/>
<g class="st1">
	<rect x="180.4" y="478.6" width="35.2" height="6"/>
	<rect x="368.8" y="478.6" width="35.2" height="6"/>
	<rect x="310.7" y="478.6" width="31.7" height="6"/>
</g>
<g class="st1">
	<polygon points="495.7,478.6 495.7,484.7 509.8,484.7 509.6,522.6 516.9,523 516.9,484.7 530.9,484.7 530.9,478.6 	"/>
	<rect x="7.9" y="478.9" width="7.2" height="45.5"/>
	<polygon points="45.3,524.4 51.7,524.4 51.7,487.9 64.8,524.4 69.4,524.4 82.9,487.9 82.9,524.4 88.9,524.4 88.9,478.9 78.3,478.9 
		67.1,511.7 56,478.9 45.3,478.9 	"/>
	<polygon points="212.1,496.2 180.4,496.2 180.4,524.4 215.6,524.4 215.6,517.1 187.5,517.1 187.5,503.3 212.1,503.3 	"/>
	<polygon points="400.4,496.2 368.8,496.2 368.8,524.4 404,524.4 404,517.1 375.8,517.1 375.8,503.3 400.4,503.3 	"/>
	<polygon points="310.7,496.2 310.7,523 317.4,523 317.4,503.4 340.6,503.3 340.6,496.2 	"/>
	<path d="M154.9,491.8c0,2.8-0.8,5.3-2.3,7.5c-2.6,3.8-7.1,5.9-11.7,5.9h-16v18h-7.6V500l23.6,0c2.3,0,4.5-1.2,5.6-3.2
		c0.8-1.5,1.3-3.2,1.3-4.9c0-0.8-0.1-1.6-0.3-2.4c-0.7-2.8-3.4-4.7-6.3-4.7l-23.9,0v-5.8h24.1c5.9,0,11.3,3.7,12.9,9.4
		C154.7,489.4,154.9,490.6,154.9,491.8z"/>
	<path d="M283.6,523h-7.8l-9.9-17.7h-14.1v18h-7.6V500h23.6c2.3,0,4.5-1.2,5.6-3.2c0.8-1.5,1.2-3.2,1.2-4.9c0-0.8-0.1-1.6-0.3-2.4
		c-0.7-2.8-3.4-4.7-6.3-4.7h-23.9v-5.8h24.1c5.9,0,11.4,3.7,12.9,9.3c0.3,1.2,0.5,2.4,0.5,3.6c0,2.8-0.8,5.3-2.3,7.5
		c-1.6,2.4-4,4.2-6.7,5.1L283.6,523z"/>
	<path d="M464.8,506.8h7.1c-2.5,10.1-11.1,17.6-21.3,17.6c-12.1,0-22-10.6-22-23.8c0-13.1,9.9-23.8,22-23.8
		c10.2,0,18.7,7.5,21.3,17.6h-7.1c-2.2-6.3-7.7-10.8-14.2-10.8c-8.4,0-15.2,7.6-15.2,17c0,9.4,6.8,17,15.2,17
		C457.1,517.6,462.6,513.1,464.8,506.8z"/>
</g>
</svg>
